<?xml version="1.0"?>
<svg width="70" height="60" xmlns="http://www.w3.org/2000/svg" xmlns:svg="http://www.w3.org/2000/svg">
 <g class="layer">
  <title>Layer 1</title>
  <path d="m2.23,2.5l32.57,37.9l32.46,-37.7l-65.03,-0.2z" fill="#23A9E1" id="svg_1"/>
  <path d="m26.99,16.7l17.55,0c-1.32,-0.8 -4.47,-4.6 -6.09,-3.2c-0.1,0.1 -4.97,-5.7 -8.12,-2.9c-2.74,2.5 -4.05,-0.3 -7.1,1.6c-3.65,2.4 2.03,3.7 3.76,4.5zm27.08,-3.5l-9.94,0.1c3.96,-4.5 5.68,-4 9.94,-0.1z" fill="white" id="svg_2"/>
  <path d="m64.01,5.6l0,-2.4l2.13,0l-2.13,2.4zm-49.91,9.4c0.1,0.1 2.44,-2.4 6.19,-4.9c3.45,-2.3 8.72,-4.9 14.61,-4.9c5.88,0 11.26,2.7 14.71,5c3.75,2.4 6.09,4.8 6.19,4.9l-2.54,3c-4.56,0.6 -7.81,3.9 -12.27,3.2c-2.24,-0.4 -2.34,-1.6 -2.95,-2.9c-0.5,-1 -1.32,-0.8 -2.33,-1.2c-0.91,-0.4 -1.52,-1.1 -3.45,-0.7c-1.62,0.4 -1.83,2.9 -3.96,2.8c-1.11,-0.1 -1.21,-1.6 -2.84,-3.6c-4.16,-4.9 -7.95,-4.29 -10.59,0.21l-0.77,-0.91zm-8.52,-11.8l0,1.9l-1.62,-1.9l1.62,0zm54.68,0l3.25,0l0,3l-3.25,3.8l0,-6.8zm-4.16,11.4l0,-11.4l3.55,0l0,7.4l-3.55,4zm-0.51,-10.4l0,9.9c-1.11,-1.1 -2.33,-2.1 -3.65,-3l3.65,-6.9zm-4.16,-0.3l0,6.8c-0.5,-0.3 -0.91,-0.7 -1.52,-1c-0.71,-0.4 -1.42,-0.9 -2.23,-1.3l3.75,-4.5zm-4.46,-0.2l0,4.3c-1.01,-0.5 -2.13,-1 -3.14,-1.5l3.14,-2.8zm0.61,-0.5l3.75,0l-3.75,4.6l0,-4.6zm4.36,0l3.65,0l-3.65,7.1l0,-7.1zm-8.93,0l3.96,0l-3.55,3.1c-0.1,0 -0.2,-0.1 -0.3,-0.1l-0.11,-3zm-0.5,0.4l0,2.4c-1.02,-0.4 -2.03,-0.7 -3.15,-0.9l3.15,-1.5zm-4.26,0l0,1.3c-0.71,-0.1 -1.42,-0.2 -2.24,-0.3l2.24,-1zm-6.9,0l2.23,1c-0.81,0 -1.52,0.1 -2.23,0.3l0,-1.3zm-4.16,0l3.14,1.5c-1.11,0.2 -2.13,0.5 -3.14,0.9l0,-2.4zm3.65,1.2l-3.35,-1.6l3.35,0l0,1.6zm3.55,-0.4l-2.84,-1.3l2.84,0l0,1.3zm0.71,-1.2l2.94,0l-2.94,1.3l0,-1.3zm3.76,0l3.24,0l-3.24,1.6l0,-1.6zm-12.58,3.1l-3.56,-3.1l3.96,0l0,3l-0.4,0.1zm-3.66,-2.6l3.15,2.7c-1.12,0.4 -2.13,0.9 -3.15,1.5l0,-4.2zm-4.36,0.2l3.65,4.5c-1.32,0.7 -2.53,1.5 -3.65,2.4l0,-6.9zm-4.26,0.3l3.65,7c-1.32,1 -2.53,2 -3.65,3.2l0,-10.2zm3.75,6l-3.65,-7.1l3.65,0l0,7.1zm4.37,-2.5l-3.76,-4.6l3.76,0l0,4.6zm-12.79,1.8l-3.24,-3.8l0,-2.5l3.24,0l0,6.3zm0.61,-6.3l3.55,0l0,11.2l-3.55,-4.2l0,-7zm-8.42,-1.2l0,14.6l33.48,39.9l33.48,-39.5l0,-15l-66.96,0z" fill="#491213" id="svg_3"/>
  <path d="m32.36,48l2.64,-4.2l2.64,4.2l-2.64,4.2l-2.64,-4.2z" fill="#23A9E1" id="svg_4"/>
  <path d="m40.28,32.6c-3.45,-2 -2.64,-3.5 0.2,-4.9c1.52,-0.7 4.87,-3.4 6.19,-2.5l-6.39,7.4zm-2.34,2.5c-2.03,-0.1 -4.36,-0.4 -6.39,0.1c1.22,0.3 4.26,1.2 1.42,1.9c1.02,1.4 2.64,1.3 3.65,0.1c-0.4,-0.2 -0.71,-0.5 -1.01,-0.7c1.11,-0.3 2.13,-0.9 2.33,-1.4zm1.22,-1.6c-0.91,-0.8 -1.93,-0.8 -2.74,0c-1.22,-2.1 -5.48,-1.4 -7.51,-1.7c1.12,2.6 9.74,3.1 10.25,1.7zm-6.9,-2.2c-1.62,-0.5 -6.9,-0.4 -3.45,-1.8c1.12,-0.4 6.8,0.1 3.45,1.8zm2.03,-3c-0.51,-1.1 0.41,-2.4 1.72,-1.4c1.22,0.8 -0.6,2 -1.72,1.4zm-2.94,0.1c-2.34,0.7 -5.38,-0.8 -1.63,-1.5c2.34,-0.5 4.77,0.5 1.63,1.5c0.1,0 -0.1,0 0,0zm-2.64,-6.2c-0.51,1.6 -1.52,1.9 -1.42,0c0.1,-2.3 1.62,-1.7 3.25,-2.6c1.32,-0.7 2.03,-3.4 4.36,-1.8c1.01,0.7 2.23,0.1 2.53,1.2c0,-0.1 -2.94,6.7 -1.31,6.7c-3.25,0 -1.83,-3.8 -0.61,-6.4c-1.22,0.6 -3.15,4.3 -1.52,5c-0.82,1.1 -3.45,2.6 -4.77,1.5c-1.12,-1 -0.51,-2.3 -0.51,-3.6zm-4.06,2.8c-5.68,0 -1.82,-8.6 0.1,-8.1c2.24,0.7 1.93,8.2 -0.1,8.1zm-6.29,-8.2c-2.64,-0.1 -1.52,-2.6 0.31,-3.1c1.72,-0.5 5.27,1.1 6.49,2.2c-1.83,0.6 -4.16,0.5 -6.19,0.6c-0.2,-2 -0.71,-1.3 -0.61,0.3z" fill="#DC6243" id="svg_5"/>
  <path d="m37.84,27.8c-2.94,-3 4.36,-2.7 5.58,-3.8c0.81,0.3 7.1,-5.4 8.62,-5c-1.11,1.3 -3.45,5.3 -5.07,5.3c-1.32,0 -2.64,-0.2 -3.65,0.7c-1.52,1.4 -3.96,2.1 -5.48,2.8z" fill="#F49774" id="svg_6"/>
  <path d="m38.75,24.2c-1.62,0.9 -3.14,-2.5 -0.3,-2.2c1.83,0.2 3.75,-0.2 5.48,0.1c-1.32,1.5 -3.15,2.3 -5.18,2.1z" fill="#F4B1A4" id="svg_7"/>
  <path d="m16.84,22.9c0.31,0.4 0.61,0.8 0.51,1.4c0,0.4 -0.61,1 -0.2,1.2l1.52,-1.8c-0.41,-0.1 -3.55,-3.8 -3.55,-4.2l-2.13,1.1c0.1,0.4 0.81,0 1.21,0c0.51,0 0.92,0.4 1.32,0.7c-1.11,0.9 -3.85,3.3 -4.16,3.3c-0.1,0 -0.71,-0.4 -0.71,0c0,0.2 0.61,0.7 0.71,0.8l1.42,1.7c0.41,-0.2 -0.1,-0.5 0.1,-0.8c0.11,-0.2 3.25,-2.7 3.96,-3.4zm-3.45,-4.5c0.31,-0.1 0.41,0.3 0.61,0l-1.62,-1.9c-0.21,-0.3 -0.51,-0.6 -0.51,0c0.1,0.4 -4.06,3.7 -4.26,3.8c-0.31,0.1 -0.51,-0.3 -0.71,0.1c0.51,0.6 0.91,1.1 1.42,1.7c0.2,0.2 0.3,0.4 0.51,0.6c0.2,0.2 0.1,-0.4 0.1,-0.4c-0.1,-0.3 0.3,-0.6 0.61,-0.8c1.01,-1 3.55,-3.1 3.85,-3.1zm-5.78,-0.6c-1.12,0.3 -2.44,-0.1 -2.74,-1.3c-0.41,-1.2 0.41,-2.4 1.32,-3.1c0.91,-0.7 2.33,-0.6 2.84,0.5c0.2,0.5 0.1,1.1 -0.1,1.6c-0.1,0.3 -0.41,0.6 0,0.8c0.61,-0.7 1.11,-1.4 1.72,-2.1c-0.71,-0.4 -1.01,-1.1 -1.52,-1.7c-0.61,-0.7 -1.32,-1.4 -2.33,-1.5c-1.93,-0.3 -3.65,1.7 -3.86,3.4c-0.1,0.9 0.21,1.8 0.81,2.6c0.51,0.6 1.22,1.1 1.63,1.8c0.2,0.1 1.82,-0.7 2.13,-0.8c0.2,0 0.1,-0.1 0.1,-0.2c0,0 -0.51,0.2 0,0zm25.87,23.6c-0.71,-0.5 -2.64,-3 -3.05,-3.5l-0.2,-0.3l-0.2,0.1c-0.1,0.1 0.1,0.4 0,0.6c-0.51,0.8 -3.75,3.2 -3.96,3.4c-0.4,0.2 -0.81,-0.1 -1.01,0.2c0.51,0.6 1.82,2.3 2.03,2.3c0.3,0 0.1,-0.5 0.1,-0.6c0.1,-0.2 1.72,-1.6 2.33,-2.1c0.2,-0.2 0.41,0.3 0.61,0.5c0.2,0.3 0.3,0.7 0.2,1c-0.1,0.2 -0.5,0.6 -0.2,0.8c0.41,-0.5 1.52,-1.8 1.73,-2c0.2,-0.2 -0.41,0 -0.31,-0.1c-0.2,0.1 -0.51,0.2 -0.71,0c-0.1,0 -0.71,-0.7 -0.61,-0.8c0.31,-0.2 0.61,-0.6 1.02,-0.7c0.61,-0.1 1.01,1 1.11,1.4c0.1,0.4 0.1,0.8 -0.1,1.1c-0.1,0.3 -0.3,0.5 0,0.6l1.42,-1.9c0,0.1 -0.1,0.1 -0.2,0c0.1,0.1 -0.1,0 0,0zm-9.33,-8.9c-0.72,0 -1.43,0.3 -2.03,0.8c-1.42,1.2 -1.63,3.3 -0.51,4.8c1.32,1.7 3.45,1.9 5.17,0.7c1.42,-1.2 1.63,-3.3 0.51,-4.8c-0.81,-1 -2.03,-1.5 -3.14,-1.5zm1.21,1.4c0.92,-0.1 1.52,0.8 1.12,1.8c-0.41,1 -1.42,2 -2.44,2.4c-1.21,0.5 -2.03,-0.5 -1.52,-1.7c0.41,-1 1.42,-2 2.44,-2.4c0.1,0 0.2,-0.1 0.4,-0.1zm-2.84,-4.6c0.31,0 0.61,0.4 0.81,0l-1.42,-1.7c-0.4,0.2 0,0.4 -0.1,0.6c-0.2,0.3 -1.72,0.5 -2.13,0.6c0.1,-0.4 0.61,-1.7 0.81,-1.8c0.41,-0.3 0.61,0.3 0.81,-0.1l-1.82,-2.1c-0.2,-0.2 -0.41,-0.7 -0.61,-0.4c0,0 0,1 -0.1,1.1c-0.1,0.2 -0.61,2.4 -1.22,2.9c-0.3,0.3 -1.52,1.3 -1.83,1.4c-0.3,0.1 -0.5,-0.4 -0.81,0l1.63,1.9c0.1,0.1 0.4,0.6 0.5,0.6c0.31,0.1 0,-0.6 0.11,-0.7c0.1,-0.3 1.62,-1.8 2.33,-1.9c0.91,-0.2 2.03,-0.5 3.04,-0.4c0.2,0 -0.2,0 0,0zm24.55,6.7c0.1,0.4 0.21,0.9 0.1,1.3c-0.1,0.6 -0.6,1.9 -1.42,1.5c-0.81,-0.4 -1.42,-1.1 -2.13,-1.7c0.51,-0.6 1.02,-1.1 1.93,-0.8c0.2,0.1 0.41,0 0.2,-0.2c-0.3,-0.2 -2.03,-1.3 -2.13,-1.2c-0.2,0.2 0.31,0.6 0.1,1c-0.1,0.3 -0.4,0.5 -0.6,0.8c-0.51,-0.4 -1.22,-0.8 -0.71,-1.5c0.4,-0.4 0.81,-0.8 1.42,-0.9c0.4,-0.1 1.21,0.3 1.31,-0.1c-0.71,-0.3 -1.42,-0.7 -2.13,-1c0.11,0.5 -2.23,2.9 -2.73,3.5c-0.11,0.1 -0.41,0.4 -0.41,0.5c0,0.3 0.41,0.1 0.41,0.1c0.3,-0.1 4.46,3.3 4.56,3.6c0.1,0.2 -0.1,0.4 0,0.5c0,0 0.1,0.1 0.2,0.1c0.31,-0.3 2.95,-3.9 3.55,-4c-0.5,-0.8 -1.01,-1.6 -1.52,-2.4c-0.4,0.2 -0.1,0.7 0,0.9zm-4.06,4.4c-1.31,-0.9 -3.65,0.8 -4.05,1c-0.71,0.3 -1.22,-0.4 -0.82,-1c0.31,-0.5 0.92,-0.8 1.53,-0.8c0.2,0 0.91,0.1 0.91,0c0.1,-0.1 0.1,-0.1 0,-0.2c-0.61,-0.4 -1.12,-0.8 -1.72,-1.1c-0.11,0.7 -0.92,1.1 -1.32,1.6c-0.51,0.6 -1.02,1.3 -1.02,2c0,0.7 0.41,1.4 1.12,1.7c0.71,0.4 1.52,0.1 2.23,-0.3c0.41,-0.3 0.81,-0.6 1.22,-0.8c0.61,-0.3 1.52,0 1.32,0.8c-0.21,0.7 -0.92,1.3 -1.63,1.5c-0.4,0.1 -0.81,0.1 -1.21,-0.1c-0.31,-0.1 -0.61,-0.5 -0.82,-0.1l2.34,1.6c0.1,-0.5 0.3,-0.7 0.71,-1c0.5,-0.4 0.91,-0.9 1.32,-1.4c0.81,-0.9 1.11,-2.5 -0.11,-3.4zm17.86,-28.1c0,0.1 0,0.1 0,0l-0.91,1l-0.82,1c-0.2,0.2 -0.3,0.3 0,0.5c0.51,-0.3 3.56,4.8 3.35,5.5c-0.5,0.2 -4.56,-3.3 -4.66,-3.5c0,-0.1 0.2,-0.7 -0.11,-0.6c-0.1,0 -0.5,0.6 -0.6,0.7l-0.61,0.7c0.2,0.3 0.3,0 0.61,0c0.2,0.1 1.21,0.9 1.52,1.1c-0.51,0 -1.73,0.1 -1.93,0.1c-0.61,0.1 -0.3,-0.4 -0.71,-0.6l-1.52,1.8l-0.91,1c0,0 0,0 0,0.1c0.2,0.2 0.1,0.1 0.4,0c0.31,-0.1 4.36,3.2 4.46,3.4c0.21,0.3 -0.1,0.6 0.31,0.8l1.22,-1.4c0.1,-0.1 0.1,-0.1 0,-0.1c-0.31,-0.2 -0.31,0.1 -0.71,0.1c-0.31,-0.1 -2.95,-2.2 -3.86,-3l5.38,-0.2c0.2,0 0.71,0.6 0.71,0.8c-0.1,0.2 -0.31,0.4 0,0.5c0.3,-0.4 0.61,-0.7 0.91,-1.1l0.1,-0.2c0.1,0 0.1,-0.1 0.1,-0.2l0.11,-0.1c0.3,-0.3 1.21,-1.3 1.11,-1.4c-0.3,-0.3 -0.4,0.3 -0.81,0c-0.2,-0.2 -0.81,-1.2 -0.91,-1.4c-0.21,-0.3 0.4,-0.6 0.61,-0.7c0.5,-0.3 2.13,-0.8 2.33,0.2c0,0.2 -0.2,0.4 -0.1,0.5c0,0 0.1,0.2 0.2,0.1l2.13,-2.6c-0.1,-0.1 -0.1,-0.1 -0.2,-0.2c-0.51,0.5 -5.58,-1.5 -5.89,-1.8c-0.1,-0.2 -0.1,-0.8 -0.3,-0.8zm-0.2,2.6c0.81,0.3 1.52,0.6 2.33,1c-0.2,0.1 -0.41,0.2 -0.61,0.3c-0.2,0.1 -0.4,0.3 -0.61,0.5l-1.11,-1.8zm-6.7,7.7c-1.11,-0.1 -2.23,0.4 -3.04,1.3c-1.22,1.5 -1.12,3.7 0.4,4.9c1.53,1.2 3.76,0.9 4.97,-0.5c1.22,-1.5 1.12,-3.7 -0.4,-4.9c-0.51,-0.4 -1.22,-0.7 -1.93,-0.8zm-1.42,1.6c0.61,0 1.32,0.4 1.73,0.7c0.81,0.5 2.23,1.7 1.52,2.7c0,-0.1 0.1,-0.1 -0.1,0.1c-0.82,0.8 -2.24,0.1 -2.95,-0.5c-0.71,-0.5 -2.03,-1.7 -1.21,-2.7c0.3,-0.2 0.6,-0.3 1.01,-0.3zm-3.14,4.3c-1.22,-0.1 -2.44,0.5 -3.35,1.6c-0.61,0.8 -1.32,1.5 -1.93,2.3c0.2,0.3 0.51,-0.1 0.81,0.1c0.31,0.2 4.16,3.3 4.16,3.5c0.1,0.3 -0.2,0.4 0.1,0.6c0.1,0.1 2.94,-3.4 3.25,-4c0.41,-1.1 0.1,-2.4 -0.81,-3.2c0.1,0.1 0.2,0.1 0,0c-0.81,-0.6 -1.52,-0.9 -2.23,-0.9zm-1.12,1.6c0.1,0 0.2,0 0.3,0c1.42,0.4 3.45,2.1 2.13,3.6c-0.2,0.2 0,0 -0.4,0.4c-0.2,0.2 -4.26,-3 -4.06,-3.2c0.41,-0.5 1.32,-0.9 2.03,-0.8z" fill="white" id="svg_8"/>
 </g>
</svg>